PathFileType	4	(X/Y/Z)	Walk6.trc
DataRate	CameraRate	NumFrames	NumMarkers	Units	OrigDataRate	OrigDataStartFrame	OrigNumFrames
200.000000	200.000000	4	59	mm	200.000000	514	600
Frame#	Times		LFHD		RFHD		CLAV		STRN		LASI		RASI		RACR1		RUA1		RElbow		RFA1		RWRR		RWRU		RCAR		LACR1		LUA1		LElbow		LFA1		LWRR		RTH2		RTB1		RTB2		LTH1		LTH3		LTH2		LTH4		LMFC		LTB1		LTB2		LTB4		LMT1		LLFC		LCAR		LTB3		LWRU		RTB4		RTB3		RTH3		RMFC		RMMAL		RTH4		RLFC		RMT1		RToe		RTH1		LBHD		RElbowM		RCAL		LMT5		LToe		RBack		RPSI		C7		T10		LPSI		LMMAL		LLMAL		LCAL		LElbowM		RBHD
			X1	Y1	Z1	X2	Y2	Z2	X3	Y3	Z3	X4	Y4	Z4	X5	Y5	Z5	X6	Y6	Z6	X7	Y7	Z7	X8	Y8	Z8	X9	Y9	Z9	X10	Y10	Z10	X11	Y11	Z11	X12	Y12	Z12	X13	Y13	Z13	X14	Y14	Z14	X15	Y15	Z15	X16	Y16	Z16	X17	Y17	Z17	X18	Y18	Z18	X19	Y19	Z19	X20	Y20	Z20	X21	Y21	Z21	X22	Y22	Z22	X23	Y23	Z23	X24	Y24	Z24	X25	Y25	Z25	X26	Y26	Z26	X27	Y27	Z27	X28	Y28	Z28	X29	Y29	Z29	X30	Y30	Z30	X31	Y31	Z31	X32	Y32	Z32	X33	Y33	Z33	X34	Y34	Z34	X35	Y35	Z35	X36	Y36	Z36	X37	Y37	Z37	X38	Y38	Z38	X39	Y39	Z39	X40	Y40	Z40	X41	Y41	Z41	X42	Y42	Z42	X43	Y43	Z43	X44	Y44	Z44	X45	Y45	Z45	X46	Y46	Z46	X47	Y47	Z47	X48	Y48	Z48	X49	Y49	Z49	X50	Y50	Z50	X51	Y51	Z51	X52	Y52	Z52	X53	Y53	Z53	X54	Y54	Z54	X55	Y55	Z55	X56	Y56	Z56	X57	Y57	Z57	X58	Y58	Z58	X59	Y59	Z59

514	2.57	1127	1632.5	-60.36	1126.9	1646.5	37.886	1141.5	1381.6	24.783	1210.9	1226.4	40.691	1115.7	963.87	-121.42	1094.5	970.92	229.05	1018.5	1476.8	187.07	1019.9	1317.2	318.08	1056	1178	377.66	1132.1	1047.7	388.49	1188.5	946.26	314.25	1183.9	945.51	396.56	1241.6	879.19	358.68	1024.4	1429.5	-159.77	962.85	1262.1	-234.84	914.52	1103.9	-274.95	909.1	962.72	-285.93	940.47	831.94	-228.34	1007.4	661.98	248.58	870.4	341.56	171.75	782.13	305.62	216.45	1108	750.06	-152.27	1172.4	593.86	-124.65	1191.6	696.91	-124.18	1138.8	672.48	-137.73	1207	513.43	33.81	1270.7	402.99	-57.527	1242.3	307.82	-90.332	1273.9	320.93	-37.075	1351.4	36.692	-6.5445	1181.4	510.69	-121.7	926.19	742.78	-258.64	1268.1	235.24	-19.707	889.35	824.45	-282.11	800.8	291.02	160.07	732.04	240.82	148.03	942.91	579.37	251.66	917.6	468.84	89.316	607.76	183.15	81.703	950.28	664.51	258.81	897.81	475.07	243.61	634.01	47.388	94.849	665.89	24.677	133.62	955.58	750.81	266.68	980.2	1546.4	-61.518	1014.8	1091.8	288.92	520.44	228.58	112.75	1281.6	25.294	-80.182	1397.6	38.428	-45.336	881.54	1346.2	144.09	842.38	1003.4	72.639	943.4	1456.9	17.154	888.82	1140.5	39.693	861.15	1006.6	-10.77	1218.7	85.062	70.901	1186.9	72.504	-13.088	1143.3	44.932	47.739	854.14	1062.1	-173.76	995.78	1573	85.917
515	2.575	1133.9	1633.7	-61.281	1133.8	1647.8	36.945	1148.3	1383	24.002	1217.6	1227.6	40.046	1122	965.32	-122.55	1101.9	972.18	227.84	1025.4	1478.4	186.14	1026.5	1318.9	317.28	1061.8	1179.4	376.81	1137.1	1048.6	388.04	1192.7	946.52	314.02	1188.1	946.02	396.33	1245.1	878.89	358.56	1031.4	1430.8	-160.54	970.73	1262.9	-235.53	923.22	1104.4	-275.54	919.09	963.25	-286.49	951.65	832.76	-228.91	1018.2	662.9	248.6	882.33	342.27	172.95	793.67	307.53	217.92	1113.2	750.44	-152.83	1176.5	593.87	-124.91	1196.4	696.76	-124.82	1143.3	672.67	-138.06	1211	513.5	33.704	1273.6	402.41	-57.548	1244.5	307.41	-90.308	1276.1	320.35	-37.029	1351.6	36.541	-6.3376	1185	510.73	-121.8	938.37	743.62	-259.51	1269.7	234.71	-19.583	900.64	824.88	-282.7	811.99	292.7	161.47	742.47	243.43	149.65	954.86	579.43	252.36	930.89	468.39	90.28	617.1	187.65	83.622	961.09	664.69	259.16	910.88	475.19	244.7	639.99	50.347	95.944	670.55	25.129	134.64	965.22	751.11	266.55	987.1	1547.6	-62.443	1020.1	1093.5	288.12	530.96	234.95	115.15	1281.6	25.434	-80.136	1398.3	37.462	-45.292	888.43	1347.8	143.44	849.17	1004.2	72.175	950.31	1458.2	16.271	895.56	1141.9	38.912	867.75	1008.1	-11.444	1219	84.948	71.106	1187.3	72.58	-12.916	1143.4	45.11	47.824	863.37	1062.2	-174.24	1002.6	1574.3	84.961
516	2.58	1140.8	1634.9	-62.122	1140.6	1649	36.088	1155.1	1384.3	23.258	1224.3	1228.8	39.392	1128.2	966.75	-123.7	1109.1	973.47	226.64	1032.3	1479.9	185.26	1033	1320.5	316.52	1067.6	1180.9	376	1142	1049.4	387.62	1196.8	946.76	313.84	1192.3	946.5	396.14	1248.5	878.57	358.48	1038.4	1432.1	-161.27	978.61	1263.7	-236.23	931.94	1105	-276.16	929.12	963.84	-287.06	962.93	833.68	-229.48	1029	663.91	248.61	894.5	343.08	173.99	805.54	309.41	219.27	1118.3	750.87	-153.35	1180.5	593.91	-125.16	1201.1	696.64	-125.37	1147.8	672.91	-138.37	1214.9	513.54	33.607	1276.3	401.84	-57.563	1246.6	307.01	-90.288	1278.3	319.79	-36.985	1351.8	36.446	-6.1661	1188.4	510.76	-121.9	950.71	744.56	-260.36	1271.2	234.19	-19.467	912.02	825.37	-283.26	823.47	294.45	162.71	753.26	246.06	151.11	966.9	579.57	253.02	944.27	468.1	91.156	626.83	192.06	85.461	971.96	664.93	259.5	924.1	475.39	245.72	646.81	53.426	97.209	676.12	25.818	135.83	974.88	751.46	266.43	993.99	1548.8	-63.311	1025.4	1095.3	287.38	541.78	241	117.53	1281.7	25.561	-80.093	1398.8	36.581	-45.291	895.27	1349.4	142.78	855.89	1005.1	71.701	957.2	1459.6	15.417	902.23	1143.2	38.125	874.29	1009.5	-12.117	1219.3	84.85	71.288	1187.6	72.654	-12.758	1143.5	45.271	47.902	872.59	1062.3	-174.75	1009.4	1575.6	84.069
517	2.585	1147.6	1636.1	-62.886	1147.4	1650.3	35.313	1161.9	1385.5	22.546	1230.9	1229.9	38.728	1134.4	968.15	-124.85	1116.3	974.77	225.47	1039.1	1481.3	184.43	1039.5	1322.1	315.8	1073.3	1182.3	375.24	1146.8	1050.2	387.25	1200.8	946.97	313.69	1196.4	946.96	395.98	1251.9	878.22	358.44	1045.3	1433.4	-161.97	986.47	1264.7	-236.93	940.69	1105.6	-276.8	939.21	964.48	-287.65	974.29	834.68	-230.05	1039.8	665.01	248.61	906.89	344.02	174.87	817.74	311.25	220.51	1123.4	751.34	-153.84	1184.4	593.98	-125.4	1205.7	696.54	-125.84	1152.2	673.18	-138.68	1218.6	513.54	33.513	1278.9	401.29	-57.575	1248.6	306.62	-90.274	1280.3	319.24	-36.943	1352	36.393	-6.0275	1191.8	510.8	-122.01	963.18	745.6	-261.2	1272.5	233.7	-19.361	923.47	825.91	-283.82	835.23	296.26	163.79	764.37	248.7	152.4	979.02	579.8	253.64	957.72	467.99	91.949	636.95	196.36	87.213	982.88	665.25	259.81	937.45	475.66	246.67	654.49	56.589	98.635	682.66	26.768	137.17	984.57	751.87	266.3	1000.8	1550.1	-64.124	1030.8	1096.9	286.69	552.87	246.68	119.85	1281.8	25.673	-80.055	1399.4	35.777	-45.328	902.05	1351	142.1	862.55	1006.1	71.224	964.07	1460.9	14.594	908.84	1144.6	37.344	880.77	1011	-12.781	1219.6	84.766	71.447	1187.9	72.724	-12.616	1143.6	45.417	47.971	881.81	1062.4	-175.31	1016.2	1576.9	83.241
